<?xml version="1.0" encoding="UTF-8"?>
<svg id="Layer_1" data-name="Layer 1" xmlns="http://www.w3.org/2000/svg" viewBox="0 0 200 300">
    <defs>
        <style>
            .cls-1 {
            fill: #ec356f;
            }

            .cls-2 {
            fill: #41406b;
            }

            .cls-3 {
            fill: #2c2b4d;
            }

            .cls-4 {
            fill: #f79612;
            }
        </style>
    </defs>
    <path class="cls-1" d="M100,0h25c41.42,0,75,33.58,75,75H100V0Z"/>
    <path class="cls-3" d="M0,100H0c110.46,0,200,89.54,200,200H0V100Z"/>
    <path class="cls-2" d="M0,200H0c55.23,0,100,44.77,100,100H0v-100Z"/>
    <path class="cls-3" d="M50,25h0c13.81,0,25,11.19,25,25h0c0,13.81-11.19,25-25,25h0c-13.81,0-25-11.19-25-25h0c0-13.81,11.19-25,25-25Z"/>
    <path class="cls-3" d="M50,25h0c13.81,0,25,11.19,25,25h0c0,13.81-11.19,25-25,25h0c-13.81,0-25-11.19-25-25h0c0-13.81,11.19-25,25-25Z"/>
    <path class="cls-3" d="M50,25h0c13.81,0,25,11.19,25,25h0c0,13.81-11.19,25-25,25h0c-13.81,0-25-11.19-25-25h0c0-13.81,11.19-25,25-25Z"/>
    <path class="cls-4" d="M100,25h50c27.61,0,50,22.39,50,50H100V25Z"/>
</svg>